<?xml version="1.0" encoding="utf-8"?>
<!-- Generator: Adobe Illustrator 19.0.0, SVG Export Plug-In . SVG Version: 6.00 Build 0)  -->
<svg version="1.1" id="Ebene_1" xmlns="http://www.w3.org/2000/svg" xmlns:xlink="http://www.w3.org/1999/xlink" x="0px" y="0px"
	 viewBox="-414 216 130 130" style="enable-background:new -414 216 130 130;" xml:space="preserve">
<style type="text/css">
	.st0{fill:none;stroke:#FFDE73;}
	.st1{fill:#FFDE73;}
	.st2{font-family:'ArialMT';}
	.st3{font-size:5px;}
	.st4{font-size:5.0002px;}
	.st5{fill:#FFDA00;}
	.st6{fill:#FBB03B;}
	.st7{fill:#8CC63F;}
</style>
<g id="oL1L2N.tif">
	
		<image style="overflow:visible;enable-background:new    ;" width="788" height="788" id="Layer_1" xlink:href="6AB28835.png"  transform="matrix(0.1424 0 0 0.1424 -404.6297 225.7944)">
	</image>
</g>
<circle class="st0" cx="-348.2" cy="281.9" r="56"/>
<polyline class="st1" points="-315.8,236.9 -312.7,239.4 -315.5,239.7 "/>
<text transform="matrix(0.7379 -0.6749 0.6749 0.7379 -393.8457 242.8682)" class="st1 st2 st3">HfK</text>
<text transform="matrix(0.766 0.6428 -0.6428 0.766 -311.8471 230.6474)" class="st1 st2 st3">Uni</text>
<text transform="matrix(0.3006 -0.9538 0.9538 0.3006 -404.6295 266.2707)" class="st1 st2 st4">RCH</text>
<g>
	<polygon id="XMLID_11_" class="st5" points="-388.7,240.1 -386.6,243.8 -390.9,243.8 	"/>
	<path id="XMLID_4_" d="M-388.7,240.8l1.6,2.7h-3.1L-388.7,240.8 M-388.7,240.1l-2.2,3.7h4.3L-388.7,240.1L-388.7,240.1z"/>
</g>
<g>
	<circle id="XMLID_10_" class="st6" cx="-348.5" cy="280.7" r="6.8"/>
	<path id="XMLID_6_" d="M-348.5,275.1c3.1,0,5.6,2.5,5.6,5.6s-2.5,5.6-5.6,5.6c-3.1,0-5.6-2.5-5.6-5.6
		C-354.1,277.7-351.6,275.1-348.5,275.1 M-348.5,274c-3.7,0-6.8,3-6.8,6.8c0,3.7,3,6.8,6.8,6.8s6.8-3,6.8-6.8
		C-341.8,277-344.8,274-348.5,274L-348.5,274z"/>
</g>
<g id="XMLID_1_">
	<g>
		<circle id="XMLID_9_" class="st7" cx="-404.2" cy="275.1" r="6.8"/>
		<path id="XMLID_5_" d="M-404.2,269.5c3.1,0,5.6,2.5,5.6,5.6s-2.5,5.6-5.6,5.6c-3.1,0-5.6-2.5-5.6-5.6
			C-409.8,272.1-407.3,269.5-404.2,269.5 M-404.2,268.4c-3.7,0-6.8,3-6.8,6.8c0,3.7,3,6.8,6.8,6.8s6.8-3,6.8-6.8
			S-400.5,268.4-404.2,268.4L-404.2,268.4z"/>
	</g>
	<g>
		<circle id="XMLID_8_" class="st7" cx="-404.2" cy="275.1" r="3.3"/>
		<path id="XMLID_3_" d="M-404.2,273c1.2,0,2.1,0.9,2.1,2.1s-0.9,2.1-2.1,2.1s-2.1-0.9-2.1-2.1C-406.3,274-405.4,273-404.2,273
			 M-404.2,271.9c-1.8,0-3.3,1.5-3.3,3.3s1.5,3.3,3.3,3.3s3.3-1.5,3.3-3.3C-400.9,273.3-402.4,271.9-404.2,271.9L-404.2,271.9z"/>
	</g>
</g>
<g>
	<rect id="XMLID_13_" x="-316.6" y="234" class="st6" width="6.6" height="6.6"/>
	<path id="XMLID_7_" d="M-310.6,234.6v5.4h-5.4v-5.4H-310.6 M-310,234h-6.6v6.6h6.6V234L-310,234z"/>
</g>
</svg>
